<?xml version="1.0" encoding="UTF-8"?>
<svg version="1.1" xmlns="http://www.w3.org/2000/svg" width="512" height="512">
<path d="M0 0 C1.45108658 0.00273422 1.45108658 0.00273422 2.93148804 0.00552368 C17.26440977 0.05095174 31.21023917 0.55983928 45.3125 3.3125 C46.65803955 3.55395752 46.65803955 3.55395752 48.03076172 3.80029297 C107.84088904 14.62287989 165.35495829 48.68064457 202.3125 97.3125 C202.72918945 97.85277832 203.14587891 98.39305664 203.57519531 98.94970703 C211.2584873 108.9447116 218.00092968 119.40459036 224.3125 130.3125 C224.70679199 130.98974121 225.10108398 131.66698242 225.50732422 132.36474609 C238.68961173 155.2833756 247.29510918 180.85822563 252.625 206.6875 C252.77243652 207.39817627 252.91987305 208.10885254 253.07177734 208.84106445 C256.05713787 224.48358366 256.6873098 240.11919606 256.625 256 C256.62226578 257.45108658 256.62226578 257.45108658 256.61947632 258.93148804 C256.57404826 273.26440977 256.06516072 287.21023917 253.3125 301.3125 C253.15152832 302.20952637 252.99055664 303.10655273 252.82470703 304.03076172 C242.00212011 363.84088904 207.94435543 421.35495829 159.3125 458.3125 C158.77222168 458.72918945 158.23194336 459.14587891 157.67529297 459.57519531 C147.6802884 467.2584873 137.22040964 474.00092968 126.3125 480.3125 C125.63525879 480.70679199 124.95801758 481.10108398 124.26025391 481.50732422 C101.3416244 494.68961173 75.76677437 503.29510918 49.9375 508.625 C49.22682373 508.77243652 48.51614746 508.91987305 47.78393555 509.07177734 C32.14141634 512.05713787 16.50580394 512.6873098 0.625 512.625 C-0.34239105 512.62317719 -1.3097821 512.62135437 -2.30648804 512.61947632 C-16.63940977 512.57404826 -30.58523917 512.06516072 -44.6875 509.3125 C-45.58452637 509.15152832 -46.48155273 508.99055664 -47.40576172 508.82470703 C-107.21588904 498.00212011 -164.72995829 463.94435543 -201.6875 415.3125 C-202.10418945 414.77222168 -202.52087891 414.23194336 -202.95019531 413.67529297 C-210.6334873 403.6802884 -217.37592968 393.22040964 -223.6875 382.3125 C-224.08179199 381.63525879 -224.47608398 380.95801758 -224.88232422 380.26025391 C-238.06461173 357.3416244 -246.67010918 331.76677437 -252 305.9375 C-252.14743652 305.22682373 -252.29487305 304.51614746 -252.44677734 303.78393555 C-255.43213787 288.14141634 -256.0623098 272.50580394 -256 256.625 C-255.99817719 255.65760895 -255.99635437 254.6902179 -255.99447632 253.69351196 C-255.94904826 239.36059023 -255.44016072 225.41476083 -252.6875 211.3125 C-252.44604248 209.96696045 -252.44604248 209.96696045 -252.19970703 208.59423828 C-241.37712011 148.78411096 -207.31935543 91.27004171 -158.6875 54.3125 C-158.14722168 53.89581055 -157.60694336 53.47912109 -157.05029297 53.04980469 C-147.0552884 45.3665127 -136.59540964 38.62407032 -125.6875 32.3125 C-125.01025879 31.91820801 -124.33301758 31.52391602 -123.63525391 31.11767578 C-100.7166244 17.93538827 -75.14177437 9.32989082 -49.3125 4 C-48.60182373 3.85256348 -47.89114746 3.70512695 -47.15893555 3.55322266 C-31.51641634 0.56786213 -15.88080394 -0.0623098 0 0 Z " fill="#4176F9" transform="translate(255.6875,-0.3125)"/>
<path d="M0 0 C18.15 -0.103125 36.3 -0.20625 55 -0.3125 C60.70152344 -0.35802002 66.40304688 -0.40354004 72.27734375 -0.45043945 C79.31445312 -0.47302246 79.31445312 -0.47302246 82.62329102 -0.47721863 C84.90263774 -0.48482694 87.18196612 -0.50226565 89.46118164 -0.52787781 C108.00501392 -0.72559106 125.96577535 0.01054727 140.4296875 13.21875 C151.50572112 24.69424712 154.42223463 37.77886017 154.36645508 53.24414062 C154.0988386 63.37337149 151.57485323 71.59830601 144.4375 79.01953125 C140.08286926 82.55766872 135.13829467 84.81622477 130 87 C130.76183594 87.20753906 131.52367187 87.41507812 132.30859375 87.62890625 C143.091538 90.84628912 150.30256109 95.37832481 155.78515625 105.38671875 C162.26800855 119.33214701 163.98500118 139.80381044 159.03515625 154.4921875 C152.53936328 170.22916519 143.99882699 180.42116209 128.125 187.25 C126.42234814 187.84971428 124.71318199 188.43106414 123 189 C122.19029251 189.26956009 121.38058502 189.53912018 120.54634094 189.81684875 C108.80622894 193.08241394 96.748161 192.37538675 84.66796875 192.29296875 C82.49695059 192.28854981 80.32592923 192.28549427 78.15490723 192.28381348 C70.16572228 192.26817851 62.17660606 192.22629485 54.1875 192.1875 C36.305625 192.125625 18.42375 192.06375 0 192 C0 128.64 0 65.28 0 0 Z " fill="#F0F1F2" transform="translate(105,163)"/>
<path d="M0 0 C1.7644043 -0.01740234 1.7644043 -0.01740234 3.56445312 -0.03515625 C14.56125308 0.00131738 24.41832309 2.0227227 34.1875 7.125 C34.8693335 7.47643066 35.55116699 7.82786133 36.25366211 8.18994141 C49.70961552 15.33917177 58.57704928 27.60345425 63.09765625 42.09375 C67.0854632 56.2875504 66.9375 67.9505069 66.9375 83.375 C33.9375 83.375 0.9375 83.375 -33.0625 83.375 C-30.57677518 98.75255775 -30.57677518 98.75255775 -21.02734375 110.12890625 C-11.07023028 116.44365615 -0.91908492 117.81922517 10.65625 115.69140625 C17.84179228 113.84128265 23.0794728 112.0779015 27.9375 106.375 C29.2575 103.075 30.5775 99.775 31.9375 96.375 C42.8275 96.375 53.7175 96.375 64.9375 96.375 C64.9375 110.42988691 62.33418838 120.77301129 52.6875 131.125 C35.97947793 146.66564935 13.5759756 148.08847171 -8.06640625 147.75390625 C-27.54963484 147.01784386 -44.47520145 139.40597089 -58.125 125.4375 C-72.72745886 108.24099156 -75.83583749 86.16651768 -74.0625 64.375 C-71.50490805 44.65312434 -62.43703582 26.13074559 -46.828125 13.578125 C-32.93625073 3.22558176 -17.06257659 -0.16884353 0 0 Z " fill="#EFF1F2" transform="translate(348.0625,211.625)"/>
<path d="M0 0 C7.5481426 -0.08407585 15.09457196 -0.16418847 22.64277649 -0.20700073 C26.15837813 -0.22805148 29.67358882 -0.25614227 33.18896484 -0.30175781 C37.23017993 -0.35386357 41.27098629 -0.37300577 45.3125 -0.390625 C46.5617627 -0.41127014 47.81102539 -0.43191528 49.09814453 -0.45318604 C57.14620459 -0.45524556 62.79323663 0.29674885 69.0234375 5.78125 C69.46945313 6.3484375 69.91546875 6.915625 70.375 7.5 C71.06722656 8.35078125 71.06722656 8.35078125 71.7734375 9.21875 C76.94044264 16.72242626 76.74725469 26.19306978 76 35 C74.5392785 40.92208175 71.67973817 44.89445981 67.07421875 48.80859375 C60.04865414 52.84399339 52.48852237 52.26113655 44.62890625 52.1953125 C43.35144028 52.1924826 42.0739743 52.18965271 40.75779724 52.18673706 C37.38266422 52.17747007 34.00780796 52.15954066 30.63275146 52.1373291 C27.18032245 52.11676863 23.72786385 52.10760361 20.27539062 52.09765625 C13.51677261 52.077354 6.75863519 52.03819637 0 52 C0 34.84 0 17.68 0 0 Z " fill="#4277F9" transform="translate(149,269)"/>
<path d="M0 0 C7.58263654 -0.08399228 15.16357874 -0.16411445 22.74627686 -0.20700073 C26.27766924 -0.22808292 29.80867469 -0.25623271 33.33984375 -0.30175781 C37.39587043 -0.35371956 41.45149029 -0.37297967 45.5078125 -0.390625 C46.76739777 -0.41127014 48.02698303 -0.43191528 49.32473755 -0.45318604 C60.2777133 -0.45598857 60.2777133 -0.45598857 65 4 C69.02497825 9.43372064 69.6514844 13.7123323 69.5 20.375 C69.48864014 21.21482422 69.47728027 22.05464844 69.46557617 22.91992188 C69.28006359 28.82416143 68.77796066 34.20724732 65 39 C60.46540268 42.62767786 56.07597996 43.12629725 50.40527344 43.11352539 C49.28441345 43.11344986 48.16355347 43.11337433 47.00872803 43.11329651 C45.80444153 43.10813522 44.60015503 43.10297394 43.359375 43.09765625 C42.12205627 43.0962413 40.88473755 43.09482635 39.60992432 43.09336853 C36.32855059 43.0887211 33.04722627 43.07974347 29.76586914 43.06866455 C26.41422989 43.0584152 23.06258852 43.05394859 19.7109375 43.04882812 C13.14058566 43.038651 6.57035617 43.01907523 0 43 C0 28.81 0 14.62 0 0 Z " fill="#4276F9" transform="translate(149,197)"/>
<path d="M0 0 C26.4 0 52.8 0 80 0 C80 7.92 80 15.84 80 24 C53.6 24 27.2 24 0 24 C0 16.08 0 8.16 0 0 Z " fill="#ECEEF2" transform="translate(306,174)"/>
<path d="M0 0 C6.32632619 4.23264042 10.98044983 10.20352224 13.18359375 17.4609375 C13.67859375 21.9159375 13.67859375 21.9159375 14.18359375 26.4609375 C-6.60640625 26.4609375 -27.39640625 26.4609375 -48.81640625 26.4609375 C-47.55447997 17.62745351 -44.0885011 9.50085693 -36.77734375 3.8984375 C-26.19452141 -3.46352587 -12.0359692 -5.72368181 0 0 Z " fill="#4277F9" transform="translate(363.81640625,242.5390625)"/>
</svg>
