<?xml version="1.0" standalone="no"?>
<!DOCTYPE svg PUBLIC "-//W3C//DTD SVG 20010904//EN"
 "http://www.w3.org/TR/2001/REC-SVG-20010904/DTD/svg10.dtd">
<svg version="1.0" xmlns="http://www.w3.org/2000/svg"
 width="450.000000pt" height="360.000000pt" viewBox="0 0 450.000000 360.000000"
 preserveAspectRatio="xMidYMid meet">

<g transform="translate(0.000000,360.000000) scale(0.100000,-0.100000)"
fill="#000000" stroke="none">
<path d="M0 1800 l0 -1800 2250 0 2250 0 0 1800 0 1800 -2250 0 -2250 0 0
-1800z m2392 532 c90 -30 179 -97 228 -173 57 -88 65 -119 65 -249 0 -97 -4
-124 -23 -172 -27 -67 -102 -154 -173 -200 -27 -17 -49 -34 -49 -37 0 -3 57
-63 127 -133 l128 -128 -126 0 -125 0 -137 135 c-75 74 -139 146 -143 160 -14
57 40 115 109 115 13 0 44 7 68 15 105 36 172 131 172 245 0 37 -6 80 -15 101
-24 56 -83 114 -141 140 -49 22 -65 24 -304 27 l-253 4 0 82 c0 46 3 86 8 90
4 4 122 6 262 4 228 -4 262 -7 322 -26z m-76 -356 c15 -21 19 -93 6 -113 -19
-30 -81 -43 -209 -43 l-128 0 0 -287 0 -288 -87 -3 -88 -3 0 351 c0 230 4 358
11 371 6 11 20 24 32 29 12 5 118 8 235 7 199 -2 215 -3 228 -21z"/>
</g>
</svg>
